<?xml version="1.0" standalone="no"?>
<!DOCTYPE svg PUBLIC "-//W3C//DTD SVG 20010904//EN"
 "http://www.w3.org/TR/2001/REC-SVG-20010904/DTD/svg10.dtd">
<svg version="1.0" xmlns="http://www.w3.org/2000/svg"
 width="512.000000pt" height="512.000000pt" viewBox="0 0 512.000000 512.000000"
 preserveAspectRatio="xMidYMid meet">

<g transform="translate(0.000000,512.000000) scale(0.100000,-0.100000)"
fill="#000000" stroke="none">
<path d="M0 2560 l0 -2560 2560 0 2560 0 0 2560 0 2560 -2560 0 -2560 0 0
-2560z m1027 441 c187 -19 303 -111 363 -291 29 -86 25 -245 -8 -330 -44 -112
-135 -201 -249 -242 -51 -19 -85 -22 -290 -26 l-233 -4 0 445 c0 347 3 446 13
450 21 9 307 7 404 -2z m661 3 l22 -6 0 -444 0 -445 -137 3 -138 3 -3 435 c-1
239 0 441 3 448 5 13 208 18 253 6z m1010 -336 l2 -338 175 0 175 0 2 338 3
337 335 0 335 0 3 -102 3 -103 -201 0 -200 0 0 -65 0 -65 160 0 160 0 0 -100
0 -100 -162 0 -163 0 3 -70 4 -70 199 0 199 0 0 -110 0 -110 -655 0 -655 0 0
340 0 340 -190 0 -190 0 0 -70 0 -70 150 0 150 0 0 -100 0 -99 -147 -3 -148
-3 -3 -167 -2 -168 -135 0 -135 0 0 443 c0 244 3 447 7 450 3 4 212 6 462 5
l456 -3 3 -337z m1308 334 c15 -10 272 -415 284 -448 16 -41 19 -26 9 47 -5
37 -8 142 -7 235 l3 169 108 0 108 0 0 -445 -1 -445 -109 -3 -109 -3 -143 228
c-78 125 -151 247 -161 271 -10 23 -20 42 -21 42 -1 0 -1 -121 1 -270 l3 -270
-109 0 -109 0 -6 167 c-9 210 -9 375 0 576 l6 157 121 0 c67 0 126 -4 132 -8z"/>
<path d="M890 2560 l0 -242 60 4 c73 5 105 27 140 94 22 42 25 61 25 149 0 83
-4 107 -22 140 -37 70 -65 89 -138 93 l-65 4 0 -242z"/>
<path d="M2424 2895 c0 -55 1 -76 3 -47 2 29 2 74 0 100 -2 26 -3 2 -3 -53z"/>
</g>
</svg>
